PathFileType	4	(X/Y/Z)	/Users/itak/Documents/Research/Walk-IL/dataset/trc/00291_00010.trc
DataRate	CameraRate	NumFrames	NumMarkers	Units	OrigDataRate	OrigDataStartFrame	OrigNumFrames
100.000000	100.000000	4	54	mm	100.000000	0	656
Frame#	Time	RPSI			LPSI			L3			STRN			T10			C7			CLAV			RBAK			LBAK			LSHO			LUPA			LAEL			LAOL			LWTS			LWPS			LFRA			LHPS			LHTS			RSHO			RUPA			RAEL			RAOL			RWTS			RWPS			RFRA			RHTS			RHPS			RBHD			LFHD			RFHD			LBHD			RHIP			RASI			LASI			LKNE			LTHI			LANK			LTIP			LTOE			LMT1			LMT5			LHEE			RKNE			RTHI			RANK			RTIP			RTOE			RMT1			RMT5			RHEE			LHIP			RIFD			LIFD			*53			
		X1	Y1	Z1	X2	Y2	Z2	X3	Y3	Z3	X4	Y4	Z4	X5	Y5	Z5	X6	Y6	Z6	X7	Y7	Z7	X8	Y8	Z8	X9	Y9	Z9	X10	Y10	Z10	X11	Y11	Z11	X12	Y12	Z12	X13	Y13	Z13	X14	Y14	Z14	X15	Y15	Z15	X16	Y16	Z16	X17	Y17	Z17	X18	Y18	Z18	X19	Y19	Z19	X20	Y20	Z20	X21	Y21	Z21	X22	Y22	Z22	X23	Y23	Z23	X24	Y24	Z24	X25	Y25	Z25	X26	Y26	Z26	X27	Y27	Z27	X28	Y28	Z28	X29	Y29	Z29	X30	Y30	Z30	X31	Y31	Z31	X32	Y32	Z32	X33	Y33	Z33	X34	Y34	Z34	X35	Y35	Z35	X36	Y36	Z36	X37	Y37	Z37	X38	Y38	Z38	X39	Y39	Z39	X40	Y40	Z40	X41	Y41	Z41	X42	Y42	Z42	X43	Y43	Z43	X44	Y44	Z44	X45	Y45	Z45	X46	Y46	Z46	X47	Y47	Z47	X48	Y48	Z48	X49	Y49	Z49	X50	Y50	Z50	X51	Y51	Z51	X52	Y52	Z52	X53	Y53	Z53	X54	Y54	Z54	

1	0	271.523681640625	1011.870849609375	1163.275024414062	242.8142547607422	1003.674133300781	1335.838623046875	238.0177917480469	1077.111328125	1247.468872070312	-14.40336418151855	1245.393310546875	1216.261108398438	253.2823791503906	1192.105590820312	1247.958251953125	196.3359832763672	1435.19140625	1261.576904296875	45.84840393066406	1346.890747070312	1230.9228515625	264.0874938964844	1301.968994140625	1190.540649414062	197.9478759765625	1395.998413085938	1364.976318359375	101.3748474121094	1398.325561523438	1404.196655273438	122.9212188720703	1280.587280273438	1480.013793945312	118.6179885864258	1075.695922851562	1490.890625	184.5274658203125	1064.137573242188	1435.985961914062	40.43019485473633	854.7296752929688	1432.983154296875	72.33515167236328	840.1819458007812	1495.828491210938	103.7150344848633	970.679931640625	1496.47705078125	70.22859191894531	750.754638671875	1487.600830078125	18.27408027648926	754.8715209960938	1447.72900390625	154.8577575683594	1414.055053710938	1094.8447265625	173.5606231689453	1356.637329101562	1028.614624023438	191.6874389648438	1090.546020507812	974.5897827148438	217.3793640136719	1081.828125	1066.339477539062	73.60458374023438	873.3968505859375	1015.455749511719	124.9674911499023	865.0926513671875	948.593017578125	166.3276824951172	1024.049438476562	961.1412963867188	35.28207778930664	761.43603515625	992.8367919921875	91.11943817138672	756.4843139648438	949.568115234375	169.0431213378906	1605.919677734375	1199.173828125	-39.98732376098633	1606.221557617188	1237.945068359375	-2.34644341468811	1604.452514648438	1153.035522460938	109.6521987915039	1598.344970703125	1331.319213867188	189.0688171386719	960.3816528320312	1045.163208007812	60.14020919799805	958.9418334960938	1097.489013671875	32.26137542724609	955.2964477539062	1346.846435546875	109.6310043334961	484.5888366699219	1373.968872070312	113.0298080444336	626.2850341796875	1397.84375	222.366943359375	47.69698715209961	1369.552490234375	165.7566680908203	260.485595703125	1381.3505859375	23.35745239257812	40.90368270874023	1284.850341796875	97.37448883056641	31.29521942138672	1254.087890625	98.88304901123047	43.87946701049805	1365.3173828125	274.9079284667969	41.68977355957031	1316.667358398438	156.4556274414062	482.9992065429688	1081.402954101562	132.1365966796875	745.234375	1042.732543945312	241.8063049316406	42.68267822265625	1113.831787109375	155.6462097167969	358.967529296875	1094.726684570312	46.66418838500977	44.96393203735352	1167.500610351562	104.6964874267578	40.55127334594727	1205.911499023438	136.7047424316406	37.09463500976562	1093.58740234375	294.4190979003906	35.96979904174805	1162.501098632812	161.5757446289062	952.8533325195312	1420.5322265625	54.20048522949219	689.917236328125	1016.116333007812	40.53414916992188	668.9165649414062	1427.944946289062	nan	nan	nan	
2	0.01	271.2244567871094	1011.808776855469	1163.743896484375	242.1260681152344	1003.737060546875	1336.251342773438	237.303466796875	1077.149169921875	1247.927124023438	-15.16401863098145	1245.295166015625	1216.340454101562	252.4641723632812	1192.202392578125	1248.54052734375	195.1224670410156	1435.196655273438	1262.113525390625	44.93692398071289	1346.732421875	1230.939697265625	263.2096862792969	1302.03759765625	1191.2392578125	196.4580535888672	1395.925903320312	1365.41064453125	99.80672454833984	1398.138549804688	1404.4365234375	121.2206344604492	1280.426879882812	1480.349365234375	116.9294281005859	1075.461303710938	1491.188110351562	182.9604949951172	1063.91064453125	1436.438232421875	38.99956512451172	854.4530639648438	1433.051879882812	70.88344573974609	839.9136962890625	1495.894287109375	102.0583343505859	970.535400390625	1496.709350585938	68.84120178222656	750.6869506835938	1487.581176757812	16.83334159851074	754.6080932617188	1447.751342773438	154.1578674316406	1414.082641601562	1095.265747070312	173.1482696533203	1356.7333984375	1029.073120117188	191.9361572265625	1090.760864257812	974.818359375	217.37744140625	1082.003051757812	1066.668334960938	74.42128753662109	873.2137451171875	1014.749938964844	126.1068801879883	865.1702880859375	948.2233276367188	166.8274993896484	1024.200927734375	961.1763305664062	36.55332183837891	761.1454467773438	991.9025268554688	92.57303619384766	756.49560546875	948.8582763671875	168.2293243408203	1605.669067382812	1199.560546875	-40.98871231079102	1606.367309570312	1237.568969726562	-3.033426284790039	1604.453002929688	1152.925415039062	108.3353118896484	1598.307495117188	1331.491088867188	188.9569396972656	960.21826171875	1045.536499023438	60.08878326416016	958.7092895507812	1097.664428710938	31.09503936767578	955.4254150390625	1347.353149414062	109.4777755737305	484.4652709960938	1374.014038085938	112.5963973999023	626.1611328125	1397.879638671875	222.3690948486328	47.66582489013672	1369.566528320312	165.7167663574219	260.4300231933594	1381.412475585938	23.39906692504883	40.91950225830078	1284.856567382812	97.40306854248047	31.28226470947266	1254.091918945312	98.91764831542969	43.9055290222168	1365.332153320312	274.9270935058594	41.63348007202148	1316.667602539062	154.4922332763672	482.7662658691406	1081.812133789062	131.4169311523438	745.1014404296875	1042.969970703125	241.7899169921875	42.69918441772461	1113.872436523438	154.0046844482422	358.573486328125	1094.882568359375	46.62200927734375	44.91762542724609	1167.488037109375	104.6718978881836	40.55973434448242	1205.903930664062	136.7152709960938	37.07162475585938	1093.547241210938	294.3663024902344	36.02461242675781	1162.549194335938	160.3188323974609	953.0189208984375	1421.19873046875	55.48294830322266	689.6964721679688	1015.066711425781	39.09914016723633	668.6759033203125	1428.007568359375	nan	nan	nan	
3	0.02	270.8483581542969	1011.6845703125	1164.327880859375	241.2604522705078	1003.802307128906	1336.757080078125	236.4026947021484	1077.178344726562	1248.49267578125	-16.15771865844727	1245.115112304688	1216.437255859375	251.4234771728516	1192.3193359375	1249.28271484375	193.5661163330078	1435.182861328125	1262.792724609375	43.72817993164062	1346.509033203125	1230.97705078125	262.0977172851562	1302.120483398438	1192.130859375	194.5516204833984	1395.827514648438	1365.9892578125	97.78353118896484	1397.893676757812	1404.733764648438	119.0051803588867	1280.213989257812	1480.759521484375	114.7465133666992	1075.173217773438	1491.55517578125	180.9646453857422	1063.656127929688	1437.0380859375	37.12125015258789	854.1376953125	1433.126953125	68.96700286865234	839.5765380859375	1495.953979492188	99.91049194335938	970.3304443359375	1496.976440429688	66.98651885986328	750.5658569335938	1487.53271484375	14.92002487182617	754.2950439453125	1447.748657226562	153.2594451904297	1414.097290039062	1095.799194335938	172.6304779052734	1356.837524414062	1029.659545898438	192.2786102294922	1091.013427734375	975.125244140625	217.3717041015625	1082.207641601562	1067.101928710938	75.45693969726562	872.9824829101562	1013.90380859375	127.5771102905273	865.251708984375	947.776611328125	167.4881591796875	1024.383178710938	961.23974609375	38.19307708740234	760.7681274414062	990.6925048828125	94.46404266357422	756.487060546875	947.9909057617188	167.1759796142578	1605.32470703125	1200.049438476562	-42.2566032409668	1606.52001953125	1237.068359375	-3.900989532470703	1604.424682617188	1152.731079101562	106.6415252685547	1598.256469726562	1331.702270507812	188.8244171142578	959.9533081054688	1046.003051757812	60.03448104858398	958.4083862304688	1097.857666015625	29.67416381835938	955.5431518554688	1347.909423828125	109.2784881591797	484.3341979980469	1374.102783203125	112.023567199707	625.9959106445312	1397.93603515625	222.370361328125	47.62376403808594	1369.589721679688	165.6755981445312	260.3596496582031	1381.497436523438	23.45223426818848	40.94263076782227	1284.869750976562	97.44573974609375	31.26486587524414	1254.09912109375	98.95823669433594	43.92529296875	1365.351928710938	274.9528198242188	41.55931091308594	1316.672485351562	151.8810882568359	482.445556640625	1082.302490234375	130.4652862548828	744.8920288085938	1043.263549804688	241.7520446777344	42.72744750976562	1113.927856445312	151.8290710449219	358.0405883789062	1095.032348632812	46.55082702636719	44.84025192260742	1167.469848632812	104.6304321289062	40.57889175415039	1205.8896484375	136.7249908447266	37.04391479492188	1093.489990234375	294.2831420898438	36.11540603637695	1162.619140625	158.7839050292969	953.1824340820312	1421.956176757812	57.18650817871094	689.3814697265625	1013.774780273438	37.19376754760742	668.3895263671875	1428.055297851562	nan	nan	nan	
4	0.03	270.4176330566406	1011.476440429688	1164.995361328125	240.2537384033203	1003.858764648438	1337.326538085938	235.3523712158203	1077.185180664062	1249.136596679688	-17.34783172607422	1244.832397460938	1216.528076171875	250.1983489990234	1192.447875976562	1250.159301757812	191.7130584716797	1435.140625	1263.588623046875	42.24896240234375	1346.217529296875	1231.033081054688	260.7913208007812	1302.212036132812	1193.186401367188	192.2853698730469	1395.703002929688	1366.7021484375	95.35915374755859	1397.59375	1405.070678710938	116.3251266479492	1279.949340820312	1481.221923828125	112.1246948242188	1074.841552734375	1491.970703125	178.5930023193359	1063.376586914062	1437.759887695312	34.82276153564453	853.8056030273438	1433.193725585938	66.61758422851562	839.183349609375	1495.99072265625	97.32485961914062	970.058837890625	1497.2548828125	64.68375396728516	750.3726806640625	1487.4453125	12.56342506408691	753.95263671875	1447.7001953125	152.1934814453125	1414.088134765625	1096.42529296875	172.0297393798828	1356.936279296875	1030.354125976562	192.7188873291016	1091.285034179688	975.5086669921875	217.3601684570312	1082.424926757812	1067.6337890625	76.68851470947266	872.7033081054688	1012.965576171875	129.3403778076172	865.326904296875	947.2821655273438	168.3027801513672	1024.583984375	961.3404541015625	40.16037750244141	760.3088989257812	989.260009765625	96.74432373046875	756.4483642578125	947.0149536132812	165.9115600585938	1604.8857421875	1200.62158203125	-43.75137329101562	1606.66259765625	1236.451171875	-4.918444156646729	1604.3544921875	1152.4384765625	104.6180953979492	1598.184814453125	1331.93994140625	188.6858215332031	959.5635986328125	1046.541259765625	59.9795036315918	958.043701171875	1098.045043945312	28.09406852722168	955.6141967773438	1348.441772460938	109.0367279052734	484.2113037109375	1374.249633789062	111.3255844116211	625.792236328125	1398.015991210938	222.3708190917969	47.56964492797852	1369.623291015625	165.6366119384766	260.2750854492188	1381.604370117188	23.51356315612793	40.97076416015625	1284.889526367188	97.50312042236328	31.24310874938965	1254.1103515625	99.00516510009766	43.93668746948242	1365.378295898438	274.9844970703125	41.46887588500977	1316.682861328125	148.650634765625	482.035888671875	1082.8349609375	129.3064575195312	744.5949096679688	1043.598388671875	241.6846771240234	42.77434539794922	1113.998413085938	149.1455993652344	357.3836975097656	1095.153686523438	46.44406509399414	44.72676467895508	1167.445556640625	104.5674819946289	40.61260986328125	1205.8662109375	136.7311401367188	37.01451110839844	1093.4150390625	294.1683654785156	36.25583267211914	1162.712646484375	157.0707855224609	953.306640625	1422.723022460938	59.28013610839844	688.96826171875	1012.307800292969	34.84694671630859	668.077392578125	1428.065673828125	nan	nan	nan	
